<?xml version="1.0" encoding="UTF-8"?>
<svg width="17px" height="17px" viewBox="0 0 17 17" version="1.1" xmlns="http://www.w3.org/2000/svg" xmlns:xlink="http://www.w3.org/1999/xlink">
    <!-- Generator: Sketch 40.1 (33804) - http://www.bohemiancoding.com/sketch -->
    <title>icon-passport</title>
    <desc>Created with Sketch.</desc>
    <defs></defs>
    <g id="Page-1" stroke="none" stroke-width="1" fill="none" fill-rule="evenodd">
        <g id="icon-passport" fill="#C6CFD4">
            <path d="M14.5,13.882 L11.5,12.501 L11.5,2.61825 L14.5,4.118125 L14.5,13.882 L14.5,13.882 Z M2.5,12.882 L2.5,3.118125 L5.5,4.499125 L5.5,14.381875 L2.5,12.882 L2.5,12.882 Z M6.5,4.221 L10.5,2.8875 L10.5,12.779125 L6.5,14.112625 L6.5,4.221 L6.5,4.221 Z M15.9475,2.605625 L11.9475,0.605625 C11.8075,0.535625 11.65375,0.5 11.5,0.5 C11.39375,0.5 11.28625,0.517 11.18375,0.55125 L5.57625,2.42025 L1.9475,0.605625 C1.80625,0.535 1.6525,0.5 1.5,0.5 C1.3175,0.5 1.135,0.550125 0.97375,0.64925 C0.68,0.831625 0.5,1.1535 0.5,1.5 L0.5,13.5 C0.5,13.87875 0.71375,14.225 1.0525,14.394375 L5.0525,16.394375 C5.1925,16.4645 5.34625,16.5 5.5,16.5 C5.60625,16.5 5.71375,16.483 5.81625,16.44875 L11.4225,14.579875 L15.0525,16.394375 C15.19375,16.465 15.3475,16.5 15.5,16.5 C15.6825,16.5 15.865,16.450125 16.02625,16.35075 C16.32,16.1685 16.5,15.846625 16.5,15.5 L16.5,3.5 C16.5,3.12125 16.28625,2.775125 15.9475,2.605625 L15.9475,2.605625 Z" id="Fill-168-Copy-2"></path>
        </g>
    </g>
</svg>