<?xml version="1.0" encoding="UTF-8" standalone="no"?>
<svg width="34px" height="34px" viewBox="0 0 34 34" version="1.1" xmlns="http://www.w3.org/2000/svg" xmlns:xlink="http://www.w3.org/1999/xlink">
    <!-- Generator: Sketch 39.1 (31720) - http://www.bohemiancoding.com/sketch -->
    <title>Artboard</title>
    <desc>Created with Sketch.</desc>
    <defs>
        <path d="M26.5081899,9.86847617 L19.3770821,16.9995839 L26.5081899,24.1306917 C27.1639367,24.7864385 27.1639367,25.8516109 26.5081899,26.5073577 C25.8513335,27.1642141 24.7872706,27.1642141 24.1304143,26.5073577 L17.0004161,19.3773595 L9.86930833,26.5073577 C9.21356153,27.1642141 8.14949862,27.1642141 7.49264227,26.5073577 C6.83578591,25.8516109 6.83578591,24.7864385 7.49264227,24.1306917 L14.62375,16.9995839 L7.49264227,9.86847617 C6.83578591,9.21272937 6.83578591,8.14866645 7.49264227,7.4918101 C8.14949862,6.8360633 9.21356153,6.8360633 9.86930833,7.4918101 L17.0004161,14.6229179 L24.1304143,7.4918101 C24.7872706,6.8360633 25.8513335,6.8360633 26.5081899,7.4918101 C27.1639367,8.14866645 27.1639367,9.21272937 26.5081899,9.86847617 L26.5081899,9.86847617 Z" id="path-1"></path>
        <filter x="-50%" y="-50%" width="200%" height="200%" filterUnits="objectBoundingBox" id="filter-2">
            <feOffset dx="0" dy="0" in="SourceAlpha" result="shadowOffsetOuter1"></feOffset>
            <feGaussianBlur stdDeviation="2" in="shadowOffsetOuter1" result="shadowBlurOuter1"></feGaussianBlur>
            <feColorMatrix values="0 0 0 0 0   0 0 0 0 0   0 0 0 0 0  0 0 0 0.5 0" type="matrix" in="shadowBlurOuter1"></feColorMatrix>
        </filter>
    </defs>
    <g id="Page-1" stroke="none" stroke-width="1" fill="none" fill-rule="evenodd">
        <g id="Artboard">
            <g id="Close-Icon-Copy-5">
                <use fill="black" fill-opacity="1" filter="url(#filter-2)" xlink:href="#path-1"></use>
                <use fill="#FFFFFF" fill-rule="evenodd" xlink:href="#path-1"></use>
            </g>
        </g>
    </g>
</svg>