<?xml version="1.0" encoding="UTF-8"?>
<svg width="17px" height="17px" viewBox="0 0 17 17" version="1.1" xmlns="http://www.w3.org/2000/svg" xmlns:xlink="http://www.w3.org/1999/xlink">
    <!-- Generator: Sketch 40.1 (33804) - http://www.bohemiancoding.com/sketch -->
    <title>icon-image</title>
    <desc>Created with Sketch.</desc>
    <defs></defs>
    <g id="Page-1" stroke="none" stroke-width="1" fill="none" fill-rule="evenodd">
        <g id="icon-image" fill="#C6CFD4">
            <path d="M10.5,6.5 C10.5,7.6045 11.3955,8.5 12.5,8.5 C13.6045,8.5 14.5,7.6045 14.5,6.5 C14.5,5.3955 13.6045,4.5 12.5,4.5 C11.3955,4.5 10.5,5.3955 10.5,6.5 L10.5,6.5 Z M11.44725,11.776375 L9.44725,7.776375 C9.375375,7.632625 9.23875,7.53225 9.080125,7.5065 C9.0535,7.502125 9.026625,7.500125 9,7.5 C8.8685,7.49975 8.741,7.552 8.6465,7.6465 L8.07775,8.21525 L6.416,5.722625 C6.323125,5.582875 6.166625,5.50025 6,5.5 C5.989625,5.5 5.97925,5.500375 5.968875,5.501 C5.791,5.512125 5.6325,5.616875 5.55275,5.776375 L2.55275,11.776375 C2.517625,11.846875 2.5,11.9235 2.5,11.999875 C2.5,12.09125 2.525,12.182625 2.57475,12.262875 C2.66575,12.41025 2.826625,12.5 3,12.5 L11,12.5 C11.173375,12.5 11.33425,12.41025 11.42525,12.262875 C11.475,12.182625 11.5,12.09125 11.5,11.999875 C11.5,11.9235 11.482375,11.846875 11.44725,11.776375 L11.44725,11.776375 Z M16.5,3.5 L16.5,13.5 C16.5,14.05225 16.05225,14.5 15.5,14.5 L1.5,14.5 C0.94775,14.5 0.5,14.05225 0.5,13.5 L0.5,3.5 C0.5,2.94775 0.94775,2.5 1.5,2.5 L15.5,2.5 C16.05225,2.5 16.5,2.94775 16.5,3.5 L16.5,3.5 Z" id="Fill-176-Copy-3"></path>
        </g>
    </g>
</svg>